<?xml version="1.0" standalone="no"?><!DOCTYPE svg PUBLIC "-//W3C//DTD SVG 1.1//EN" "http://www.w3.org/Graphics/SVG/1.1/DTD/svg11.dtd"><svg t="1584795946211" class="icon" viewBox="0 0 1024 1024" version="1.1" xmlns="http://www.w3.org/2000/svg" p-id="5691" xmlns:xlink="http://www.w3.org/1999/xlink" width="200" height="200"><defs><style type="text/css"></style></defs><path d="M820.771 91.163h-56.033c-21.343 0-33.135 12.679-33.135 28.178 0 15.498 9.404 27.855 33.135 27.855h56.033c33.38 0 56.033 22.652 56.033 56.034v644.963c0 33.38-22.652 56.033-56.033 56.033H217.532c-33.38 0-70.336-22.652-70.336-56.033V203.23c0-33.38 22.652-56.034 56.034-56.034h57.033c10.463 0 34.762-3.575 34.762-27.03s-17.03-29.003-34.762-29.003H203.23c-78.685 0-112.067 48.88-112.067 113.258v637.81c0 69.145 41.727 118.024 118.023 118.024h605.62c76.303 0 118.029-40.535 118.029-118.024v-637.81c0-64.378-39.342-113.258-112.064-113.258zM273.566 343.906c0 15.498 13.115 28.61 28.61 28.61h420.836c15.498 0 28.615-13.112 28.615-28.61 0-15.5-13.116-28.615-28.615-28.615H302.175c-15.494 0-28.61 13.116-28.61 28.615zM721.82 470.275H302.175c-15.494 0-28.61 13.114-28.61 28.614 0 15.494 13.116 28.61 28.61 28.61h420.837c15.498 0 28.615-13.116 28.615-28.61-1.193-16.69-14.308-28.614-29.807-28.614z m0 168.093H302.175c-15.494 0-28.61 13.117-28.61 28.616 0 15.498 13.116 28.61 28.61 28.61h420.837c15.498 0 28.615-13.112 28.615-28.61-1.193-16.691-14.308-28.616-29.807-28.616zM415.433 161.504H610.95c22.652 0 41.726-22.652 41.726-48.88 0-26.226-19.073-48.88-42.919-48.88H415.433c-23.843 0-42.917 22.653-42.917 48.88 0 26.227 19.073 48.88 42.917 48.88z m0 0" fill="" p-id="5692"></path></svg>