<?xml version="1.0" standalone="no"?><!DOCTYPE svg PUBLIC "-//W3C//DTD SVG 1.1//EN" "http://www.w3.org/Graphics/SVG/1.1/DTD/svg11.dtd"><svg t="1584961003212" class="icon" viewBox="0 0 1024 1024" version="1.1" xmlns="http://www.w3.org/2000/svg" p-id="1187" xmlns:xlink="http://www.w3.org/1999/xlink" width="200" height="200"><defs><style type="text/css"></style></defs><path d="M557.242345 1024c-3.263592 0-13.950256-0.511936-17.341833-0.511936h-24.508936c-176.297963 0-218.852643-0.447944-238.498188-73.334833-20.925384-77.878265-36.091489-258.911636-36.091488-342.997126 0-78.262217 45.370329-127.024122 89.268841-174.186226 40.122985-43.066617 78.006249-83.765529 78.006249-144.941882L412.172478 43.450569c0.191976-9.150856 23.293088-15.934008 32.379953-15.742033 9.086864 0.191976 16.381952 7.67904 16.189976 16.829897l3.1996 244.769404c0 73.910761-44.154481 121.328834-86.901137 167.147106-41.338833 44.474441-80.437945 86.389201-80.437945 151.661043 0 80.501937 15.03812 260.31946 35.003624 334.486189 12.542432 46.586177 5.503312 47.738033 183.657043 47.866016h24.572928c151.533058 0 176.169979-0.895888 187.176603-47.35408 10.942632-46.714161 36.475441-172.778403 36.475441-334.934133 0-63.864017-36.603425-108.594426-75.382577-155.948507-38.459193-46.970129-78.262217-95.540057-78.262217-163.179602V44.666417c0-9.086864 11.83852-17.021872 20.925384-17.021873 9.086864 0 33.147857 7.935008 33.147856 17.021873v244.257468c0 55.929009 34.427697 97.907762 70.839145 142.31821 40.762905 49.785777 82.869641 101.235346 82.869642 176.873891 0 165.675291-26.172728 294.683165-37.435321 342.485189-16.893888 71.735033-76.406449 73.334833-223.012123 73.334833z" fill="#3F464E" p-id="1188"></path><path d="M538.87664 78.454193c-23.165104 0-125.296338-1.855768-125.296338-34.23572 0-32.443945 102.067242-43.834521 125.296338-43.834521 23.165104 0 125.104362 11.390576 125.104362 43.834521 0 32.443945-101.939258 34.235721-125.104362 34.23572z m-54.841144-39.03512c14.07824 3.263592 32.955881 6.07924 54.841144 6.07924 21.821272 0 40.762905-2.751656 54.841145-6.07924A244.64142 244.64142 0 0 0 538.87664 33.403825c-21.885264 0-40.762905 2.751656-54.841144 6.015248zM561.337833 938.314711c-6.591176 0-13.11836-0.127984-19.453569-0.191976l-17.021872-0.127984h-14.71816c-63.928009 0-150.829146-0.127984-168.554931-88.500938-21.11736-105.906762-38.651169-215.269091-0.63992-287.83602 31.03612-59.256593 104.946882-99.12361 183.913011-99.12361 101.555306 0 175.146107 59.768529 192.935883 100.147482 34.619673 78.646169 21.629296 157.804274-4.47944 290.971628-16.573928 84.661417-108.018498 84.661417-151.981002 84.661418z m-36.219473-48.825897l16.125984 0.191976 17.661793 0.127984c61.752281 0 101.747282-8.95888 110.514185-53.561305 24.95688-127.472066 33.019873-189.736283 6.143233-250.848644-11.070616-25.148856-68.279465-74.358705-150.381203-74.358705-62.072241 0-119.473066 30.268216-143.022122 75.254593-33.019873 63.096113-11.070616 173.162355 3.51956 245.92126 10.622672 53.177353 58.872641 57.336833 125.872266 57.336833h13.566304z" fill="#3F464E" p-id="1189"></path></svg>